#!OML:ASF E:\Style4\Style4.ASF
:FULLY-SPECIFIED
:DEGREES
3354
root -0.0694141 17.0391 -3.41274 3.10297 -3.69964 2.18235
lowerback 17.0158 2.15669 -0.959966
upperback 9.28596 2.65587 -0.125215
thorax 0.334826 1.2891 -0.0222387
lowerneck 3.56118 -3.39529 -6.95046
upperneck 2.89862 -4.80742 4.94966
head 0.611424 -2.45972 2.80181
rclavicle 8.34896e-015 -1.19271e-015
rhumerus -333.376 14.6922 -418.257
rradius 60.1001
rwrist 15.5709
rhand -24.2929 13.6839
rfingers 7.12502
rthumb 2.19452 -16.2845
lclavicle 8.34896e-015 -1.19271e-015
lhumerus 27.1501 -15.5923 54.5429
lradius 65.3072
lwrist -7.87089
lhand -22.1353 34.4718
lfingers 7.12502
lthumb 4.27815 64.4086
rfemur -32.6854 -0.277833 15.9065
rtibia 49.5901
rfoot -19.5599 -8.21081
rtoes -11.021
lfemur -29.3138 5.20915 -21.9798
ltibia 48.9832
lfoot -22.5016 8.13392
ltoes -12.1411
3355
root -0.0704119 17.039 -3.40965 3.08872 -3.69197 2.24664
lowerback 16.9781 2.1567 -1.03094
upperback 9.30389 2.64652 -0.137567
thorax 0.371182 1.28213 0.00801567
lowerneck 3.36045 -3.40414 -6.92449
upperneck 3.04101 -4.808 4.90285
head 0.689595 -2.45853 2.77552
rclavicle 8.54774e-015 5.56597e-015
rhumerus -333.231 14.679 -418.11
rradius 60.1274
rwrist 15.1618
rhand -24.1266 13.7445
rfingers 7.12502
rthumb 2.35511 -16.2223
lclavicle 8.54774e-015 5.56597e-015
lhumerus 27.1818 -15.39 54.5819
lradius 65.395
lwrist -8.32065
lhand -21.513 33.8893
lfingers 7.12502
lthumb 4.87901 63.8131
rfemur -32.6647 -0.314584 15.8343
rtibia 49.5937
rfoot -19.6233 -8.09151
rtoes -10.9002
lfemur -29.2573 5.16573 -22.0452
ltibia 48.9419
lfoot -22.5091 8.12875
ltoes -11.9537
3356
root -0.0719287 17.0406 -3.40864 3.07682 -3.65666 2.31032
lowerback 16.9662 2.16402 -1.09004
upperback 9.29462 2.64805 -0.14671
thorax 0.365352 1.28116 0.0315911
lowerneck 3.34027 -3.41134 -6.8929
upperneck 3.08195 -4.81559 4.8721
head 0.704854 -2.46205 2.75842
rclavicle 6.36111e-015 1.15295e-014
rhumerus -333.152 14.6737 -417.934
rradius 60.1483
rwrist 14.8216
rhand -24.0997 13.7697
rfingers 7.12502
rthumb 2.38108 -16.1967
lclavicle 6.36111e-015 1.15295e-014
lhumerus 27.2905 -15.3907 54.4618
lradius 65.4278
lwrist -8.64484
lhand -20.769 33.2156
lfingers 7.12502
lthumb 5.59739 63.1216
rfemur -32.6393 -0.381872 15.7717
rtibia 49.5864
rfoot -19.6157 -8.06662
rtoes -10.941
lfemur -29.22 5.11764 -22.1036
ltibia 48.9028
lfoot -22.5148 8.07749
ltoes -11.8139
3357
root -0.0728679 17.0423 -3.4051 3.03691 -3.66361 2.3385
lowerback 16.9645 2.18058 -1.0999
upperback 9.28891 2.6681 -0.160469
thorax 0.360223 1.29125 0.0193761
lowerneck 3.3943 -3.44106 -6.90853
upperneck 3.08063 -4.85927 4.89607
head 0.69904 -2.48452 2.77035
rclavicle -1.98785e-014 6.75868e-015
rhumerus -333.149 14.6459 -417.822
rradius 60.1948
rwrist 14.6443
rhand -24.0935 13.7948
rfingers 7.12502
rthumb 2.3871 -16.1716
lclavicle -1.98785e-014 6.75868e-015
lhumerus 27.3032 -15.4592 54.3116
lradius 65.5665
lwrist -8.80069
lhand -20.2641 32.869
lfingers 7.12502
lthumb 6.08489 62.7616
rfemur -32.5794 -0.430315 15.7472
rtibia 49.5827
rfoot -19.5945 -8.08004
rtoes -10.8234
lfemur -29.1339 5.10552 -22.1319
ltibia 48.8724
lfoot -22.555 8.11517
ltoes -12.0424
3358
root -0.0745291 17.0427 -3.40215 2.97116 -3.65507 2.27073
lowerback 17.0035 2.20128 -1.02132
upperback 9.31625 2.70624 -0.123156
thorax 0.370577 1.3121 0.00732451
lowerneck 3.3822 -3.5072 -6.93688
upperneck 3.0638 -4.94673 4.88521
head 0.701959 -2.52819 2.7714
rclavicle 1.25234e-014 -4.77083e-015
rhumerus -333.114 14.5658 -417.62
rradius 60.2405
rwrist 14.4147
rhand -24.0994 13.8749
rfingers 7.12502
rthumb 2.38132 -16.0916
lclavicle 1.25234e-014 -4.77083e-015
lhumerus 27.3969 -15.7562 54.0871
lradius 65.655
lwrist -8.35549
lhand -20.8144 33.3852
lfingers 7.12502
lthumb 5.55351 63.2924
rfemur -32.477 -0.444214 15.8311
rtibia 49.5745
rfoot -19.6076 -8.06312
rtoes -10.7321
lfemur -29.0523 5.07261 -22.0404
ltibia 48.8893
lfoot -22.5832 8.14311
ltoes -11.9934
3359
root -0.0756097 17.0414 -3.40035 2.91417 -3.62144 2.27131
lowerback 17.0362 2.2398 -0.98701
upperback 9.35998 2.7617 -0.0882196
thorax 0.399927 1.3401 0.0154422
lowerneck 3.30866 -3.60651 -6.96272
upperneck 3.06183 -5.07436 4.85877
head 0.722356 -2.59133 2.76495
rclavicle -3.77691e-015 4.37326e-015
rhumerus -333.024 14.4247 -417.366
rradius 60.2373
rwrist 14.0726
rhand -24.0335 13.7073
rfingers 7.12502
rthumb 2.44501 -16.2584
lclavicle -3.77691e-015 4.37326e-015
lhumerus 27.5933 -16.2419 53.7815
lradius 65.6844
lwrist -7.45723
lhand -22.0527 34.1822
lfingers 7.12502
lthumb 4.35788 64.1174
rfemur -32.4117 -0.504576 15.8421
rtibia 49.5865
rfoot -19.6202 -8.02041
rtoes -11.0517
lfemur -29.0187 5.05577 -22.041
ltibia 48.9386
lfoot -22.6074 8.24312
ltoes -12.5405
3360
root -0.0764206 17.0377 -3.39865 2.89819 -3.60181 2.20514
lowerback 17.0392 2.25645 -0.899895
upperback 9.36884 2.79643 -0.0492224
thorax 0.409507 1.35964 0.00183196
lowerneck 3.3175 -3.65893 -7.06392
upperneck 3.01644 -5.14776 4.91618
head 0.71597 -2.62871 2.80335
rclavicle -1.63003e-014 1.31198e-014
rhumerus -332.923 14.3313 -417.16
rradius 60.2013
rwrist 13.7734
rhand -23.8678 13.7404
rfingers 7.12502
rthumb 2.60503 -16.2234
lclavicle -1.63003e-014 1.31198e-014
lhumerus 27.6115 -16.4576 53.6172
lradius 65.8223
lwrist -7.26996
lhand -22.3251 33.996
lfingers 7.12502
lthumb 4.09486 63.9364
rfemur -32.3825 -0.494576 15.9223
rtibia 49.6139
rfoot -19.6851 -8.04815
rtoes -11.1676
lfemur -29.0431 5.04595 -21.9695
ltibia 49.0249
lfoot -22.6117 8.29483
ltoes -12.8123
3361
root -0.0771729 17.034 -3.39732 2.88983 -3.57289 2.1719
lowerback 17.0319 2.25453 -0.854049
upperback 9.36246 2.80092 -0.0359645
thorax 0.40778 1.36332 -0.0106215
lowerneck 3.40807 -3.69226 -7.07374
upperneck 2.89376 -5.19533 4.89253
head 0.663797 -2.65272 2.80021
rclavicle 1.2921e-014 -1.39149e-014
rhumerus -332.891 14.2723 -417.051
rradius 60.1927
rwrist 13.5494
rhand -23.7662 13.8499
rfingers 7.12502
rthumb 2.70319 -16.1127
lclavicle 1.2921e-014 -1.39149e-014
lhumerus 27.5951 -16.5921 53.438
lradius 65.9218
lwrist -7.34686
lhand -22.2762 33.8265
lfingers 7.12502
lthumb 4.14208 63.7659
rfemur -32.3866 -0.490399 15.9606
rtibia 49.6723
rfoot -19.7216 -8.06104
rtoes -10.989
lfemur -29.0781 5.0322 -21.9407
ltibia 49.121
lfoot -22.6056 8.43233
ltoes -13.3926
3362
root -0.0779902 17.0319 -3.39387 2.86857 -3.57507 2.20075
lowerback 16.9956 2.28301 -0.868471
upperback 9.37711 2.83671 -0.0381132
thorax 0.441474 1.38073 -0.00881308
lowerneck 3.41656 -3.72713 -7.09945
upperneck 2.83081 -5.24198 4.89922
head 0.646309 -2.67591 2.80784
rclavicle -3.47873e-014 9.93923e-015
rhumerus -332.852 14.2106 -416.904
rradius 60.1648
rwrist 13.3393
rhand -23.8513 13.6049
rfingers 7.12502
rthumb 2.62093 -16.3587
lclavicle -3.47873e-014 9.93923e-015
lhumerus 27.752 -16.9404 53.0713
lradius 65.9093
lwrist -7.03646
lhand -22.4222 34.1427
lfingers 7.12502
lthumb 4.00112 64.0849
rfemur -32.3818 -0.527315 15.9315
rtibia 49.7489
rfoot -19.7447 -8.05386
rtoes -11.0813
lfemur -29.0758 4.99842 -21.9719
ltibia 49.2073
lfoot -22.6774 8.50258
ltoes -13.619
3363
root -0.0783628 17.027 -3.39281 2.87773 -3.51219 2.2332
lowerback 16.9525 2.28316 -0.872005
upperback 9.38312 2.83768 -0.0307554
thorax 0.469584 1.38105 0.00256035
lowerneck 3.31397 -3.75131 -7.18108
upperneck 2.92086 -5.27265 4.95186
head 0.699066 -2.69149 2.8373
rclavicle -1.27222e-014 6.36111e-015
rhumerus -332.802 14.1342 -416.766
rradius 60.1148
rwrist 13.1915
rhand -23.9622 13.3604
rfingers 7.12502
rthumb 2.51382 -16.6045
lclavicle -1.27222e-014 6.36111e-015
lhumerus 27.8926 -17.2403 52.7341
lradius 65.8996
lwrist -6.91331
lhand -22.0198 33.9455
lfingers 7.12502
lthumb 4.38964 63.88
rfemur -32.4359 -0.594923 15.9019
rtibia 49.8523
rfoot -19.7872 -8.09165
rtoes -11.2282
lfemur -29.1354 4.95974 -22.0213
ltibia 49.2858
lfoot -22.6469 8.60016
ltoes -14.1515
3364
root -0.080708 17.0205 -3.3903 2.83647 -3.47246 2.23033
lowerback 16.96 2.30012 -0.859574
upperback 9.39322 2.86167 -0.0363043
thorax 0.477282 1.39376 -0.0141334
lowerneck 3.20247 -3.79889 -7.1419
upperneck 2.9937 -5.32948 4.96778
head 0.744793 -2.71869 2.83165
rclavicle 3.33958e-014 -3.97569e-015
rhumerus -332.827 14.0176 -416.68
rradius 60.0946
rwrist 12.9928
rhand -23.7924 13.6107
rfingers 7.12502
rthumb 2.6779 -16.3523
lclavicle 3.33958e-014 -3.97569e-015
lhumerus 27.9987 -17.5431 52.3667
lradius 65.924
lwrist -6.89897
lhand -21.4592 33.6764
lfingers 7.12502
lthumb 4.93094 63.599
rfemur -32.442 -0.600489 15.9092
rtibia 49.9635
rfoot -19.8323 -8.12548
rtoes -11.1732
lfemur -29.1232 4.93497 -22.0057
ltibia 49.36
lfoot -22.7398 8.50741
ltoes -13.9211
3365
root -0.0840698 17.0138 -3.38421 2.77371 -3.4689 2.26
lowerback 16.9681 2.33159 -0.884332
upperback 9.39417 2.89889 -0.0624837
thorax 0.474214 1.41221 -0.0339675
lowerneck 3.21743 -3.8262 -7.0668
upperneck 2.96924 -5.36471 4.98869
head 0.735025 -2.73545 2.82508
rclavicle 2.18663e-015 6.75868e-015
rhumerus -332.861 13.965 -416.556
rradius 60.0773
rwrist 12.5793
rhand -23.6122 13.8964
rfingers 7.12502
rthumb 2.85189 -16.0643
lclavicle 2.18663e-015 6.75868e-015
lhumerus 28.0477 -17.969 51.8912
lradius 65.9668
lwrist -6.67891
lhand -21.1372 33.533
lfingers 7.12502
lthumb 5.24183 63.4482
rfemur -32.4153 -0.592447 15.882
rtibia 50.0741
rfoot -19.8833 -8.17794
rtoes -11.2758
lfemur -29.078 4.92211 -22.0128
ltibia 49.4522
lfoot -22.8518 8.39776
ltoes -13.4142
3366
root -0.0869359 17.0083 -3.37816 2.73625 -3.45935 2.2593
lowerback 16.9394 2.36507 -0.881996
upperback 9.34758 2.94293 -0.0974603
thorax 0.440886 1.4355 -0.0790865
lowerneck 3.44867 -3.83663 -6.89506
upperneck 2.8411 -5.38563 5.00435
head 0.650472 -2.74586 2.80519
rclavicle -2.127e-014 6.36111e-015
rhumerus -332.966 13.9848 -416.464
rradius 60.027
rwrist 12.031
rhand -23.6238 13.7541
rfingers 7.12502
rthumb 2.84064 -16.2067
lclavicle -2.127e-014 6.36111e-015
lhumerus 28.0264 -18.5193 51.3656
lradius 66.0115
lwrist -6.4194
lhand -20.8052 33.1236
lfingers 7.12502
lthumb 5.56247 63.0306
rfemur -32.4023 -0.589164 15.8933
rtibia 50.1807
rfoot -19.9492 -8.24704
rtoes -11.3485
lfemur -29.0695 4.92931 -22.0032
ltibia 49.5699
lfoot -22.8496 8.35503
ltoes -13.0302
